<svg xmlns="http://www.w3.org/2000/svg" xmlns:xlink="http://www.w3.org/1999/xlink" id="Layer_1" x="0px" y="0px" viewBox="0 0 141 47" style="enable-background:new 0 0 141 47;" xml:space="preserve"><style type="text/css">	.st0{fill-rule:evenodd;clip-rule:evenodd;fill:#EF542E;}	.st1{fill:#033048;}	.st2{fill-rule:evenodd;clip-rule:evenodd;fill:#033048;}</style><g>	<g>		<path class="st0" d="M41.7,15c-0.5-1.4-1.4-2.6-2.2-3.8c-0.6-6.4-6.1-10-12.1-10.9c-4-0.6-9.1-0.1-12.4,2.5   C10.3,2.7,2.8,3.4,0.8,8L0,9.9l2-0.2c1-0.1,2.3,0.1,3.3,0.4c0.6,0.2,1.6,0.4,2.4,0.8l0,0C4.6,14.2,3.1,19,3.2,25.5   C4.7,2.7,33.6,6,38.9,18c0.6,0.2,1.3,0.1,1.8-0.3C41.7,17.2,42.1,16,41.7,15z M25.4,47C18.5,41.1,9,31.1,14.5,20.8   c2.2-4.3,6.5-7.2,11.4-7.2c3.7,0,7.2,1.7,9.6,4.5l0,0C19.3-4.8-19.6,29.5,25.4,47z"></path>	</g></g><path class="st1" d="M35.5,25.8c-1.6-1.4-3.8-2.1-6.5-2.1c-2.7,0-4.9,0.8-6.6,2.4c-1.6,1.6-2.4,3.6-2.4,6c0,2.5,0.7,4.5,2.2,5.9 c1.5,1.5,3.7,2.3,6.6,2.3c1.9,0,3.6-0.4,5.1-1.1c1.7-0.8,2.9-2.2,3.8-5.2h-3.2c-1,2-2.9,3.5-5.7,3.5c-3.4,0-5.2-1.4-5.6-4.3l14.8,0 v-1.7C38,29.1,37.1,27.2,35.5,25.8z M23.2,30c0.2-1,0.7-1.7,1.5-2.4c1-0.9,2.4-1.3,4.2-1.3c1.8,0,3.1,0.3,4.1,1.2 c0.8,0.7,1.2,1.4,1.4,2.4H23.2z"></path><polygon class="st1" points="52.3,24 46.7,35.6 40.7,24 37.2,24 45.6,40 47.9,40 55.7,24 "></polygon><path class="st1" d="M64.4,23.7c-2.8,0-5,0.8-6.7,2.3c-1.7,1.5-2.5,3.5-2.5,6c0,2.4,0.8,4.4,2.5,6c1.6,1.5,3.8,2.3,6.6,2.3 s5-0.8,6.7-2.3c1.7-1.5,2.5-3.5,2.5-6c0-2.4-0.8-4.4-2.5-6C69.4,24.5,67.2,23.7,64.4,23.7z M68.8,36c-1.1,1-2.5,1.5-4.4,1.5 C62.5,37.5,61,37,60,36c-1.1-1-1.6-2.3-1.6-4c0-1.7,0.5-3,1.6-4c1-1,2.5-1.5,4.4-1.5c1.9,0,3.4,0.5,4.4,1.5c1,1,1.6,2.3,1.6,4 C70.4,33.6,69.9,35,68.8,36z"></path><rect x="75" y="18" class="st1" width="3" height="22"></rect><path class="st1" d="M89.8,23.7c-2.2,0-3.8,0.6-5.8,1.8V24h-3v21h3v-6c2,1.2,3.6,1.8,5.9,1.8c2.8,0,5.1-0.8,6.7-2.5 c1.5-1.5,2.2-3.6,2.2-6.1c0-2.5-0.8-4.5-2.3-6.1C94.9,24.5,92.6,23.7,89.8,23.7z M94.4,36.3c-1,1.1-2.4,1.6-4.2,1.6 c-3.9,0-5.8-1.9-5.8-5.8c0-1.7,0.5-3,1.6-4.1c1-1,2.5-1.6,4.3-1.6c1.8,0,3.1,0.5,4.1,1.6c1,1.1,1.4,2.4,1.4,4.1 C95.8,34,95.3,35.3,94.4,36.3z"></path><path class="st1" d="M114.5,24.6c-1.3-1-3.2-1.4-5.3-1.4c-2,0-4.2,0.5-5.2,1.4V18h-3v22h3v-9.2c0-1.4,0.5-2.6,1.4-3.5 c0.9-0.9,2.4-1.3,4-1.3c2.8,0,4.5,1.1,4.5,3.4V40h3V29.1C117,27.1,116,25.6,114.5,24.6z"></path><path class="st2" d="M119.5,21.4c0-0.6,0-2.2,0-2.8c0-0.5,0.8-1,1.6-1s1.6,0.6,1.6,1c0,0,0,2.3,0,2.8c0,0.5-0.7,1-1.6,1 C120.1,22.4,119.5,22,119.5,21.4z"></path><rect x="119.5" y="23.5" class="st2" width="3.1" height="16.5"></rect><path class="st2" d="M137.9,39.9V29.8c0-2.2-1.4-3.3-4.3-3.3c-1.6,0-2.9,0.4-3.8,1.3c-0.9,0.9-1.3,2-1.3,3.4v8.8h-3.1V24h3.1v1.1 c1.4-0.9,3.1-1.4,5.1-1.4c2.1,0,3.8,0.5,5.1,1.4c1.5,1,2.3,2.5,2.3,4.4v10.4H137.9z"></path></svg>